[Header]
FileType HTR
DataType HTRS
FileVersion 1
NumSegments 64
NumFrames 4
DataFrameRate 30
EulerRotationOrder ZYX
CalibrationUnits mm
RotationUnits Degrees
GlobalAxisofGravity Y
BoneLengthAxis Y
ScaleFactor 1.0
[SegmentNames&Hierarchy]
Hips	GLOBAL
Spine	Hips
Spine1	Spine
Spine2	Spine1
Neck	Spine2
Head	Neck
LeftEye	Head
RightEye	Head
LeftShoulder	Spine2
LeftArm	LeftShoulder
LeftForeArm	LeftArm
LeftHand	LeftForeArm
LeftHandThumb1	LeftHand
LeftHandThumb2	LeftHandThumb1
LeftHandThumb3	LeftHandThumb2
LeftHandThumb4	LeftHandThumb3
LeftHandIndex1	LeftHand
LeftHandIndex2	LeftHandIndex1
LeftHandIndex3	LeftHandIndex2
LeftHandIndex4	LeftHandIndex3
LeftHandMiddle1	LeftHand
LeftHandMiddle2	LeftHandMiddle1
LeftHandMiddle3	LeftHandMiddle2
LeftHandMiddle4	LeftHandMiddle3
LeftHandRing1	LeftHand
LeftHandRing2	LeftHandRing1
LeftHandRing3	LeftHandRing2
LeftHandRing4	LeftHandRing3
LeftHandPinky1	LeftHand
LeftHandPinky2	LeftHandPinky1
LeftHandPinky3	LeftHandPinky2
LeftHandPinky4	LeftHandPinky3
RightShoulder	Spine2
RightArm	RightShoulder
RightForeArm	RightArm
RightHand	RightForeArm
RightHandPinky1	RightHand
RightHandPinky2	RightHandPinky1
RightHandPinky3	RightHandPinky2
RightHandPinky4	RightHandPinky3
RightHandRing1	RightHand
RightHandRing2	RightHandRing1
RightHandRing3	RightHandRing2
RightHandRing4	RightHandRing3
RightHandMiddle1	RightHand
RightHandMiddle2	RightHandMiddle1
RightHandMiddle3	RightHandMiddle2
RightHandMiddle4	RightHandMiddle3
RightHandIndex1	RightHand
RightHandIndex2	RightHandIndex1
RightHandIndex3	RightHandIndex2
RightHandIndex4	RightHandIndex3
RightHandThumb1	RightHand
RightHandThumb2	RightHandThumb1
RightHandThumb3	RightHandThumb2
RightHandThumb4	RightHandThumb3
LeftUpLeg	Hips
LeftLeg	LeftUpLeg
LeftFoot	LeftLeg
LeftToeBase	LeftFoot
RightUpLeg	Hips
RightLeg	RightUpLeg
RightFoot	RightLeg
RightToeBase	RightFoot
[BasePosition]
Hips	0	0	0	0	0	0	1
Spine	0	0	0	0	0	0	1
Spine1	0	0	0	0	0	0	1
Spine2	0	0	0	0	0	0	1
Neck	0	0	0	0	0	0	1
Head	0	0	0	0	0	0	1
LeftEye	0	0	0	0	0	0	1
RightEye	0	0	0	0	0	0	1
LeftShoulder	0	0	0	0	0	0	1
LeftArm	0	0	0	0	0	0	1
LeftForeArm	0	0	0	0	0	0	1
LeftHand	0	0	0	0	0	0	1
LeftHandThumb1	0	0	0	0	0	0	1
LeftHandThumb2	0	0	0	0	0	0	1
LeftHandThumb3	0	0	0	0	0	0	1
LeftHandThumb4	0	0	0	0	0	0	1
LeftHandIndex1	0	0	0	0	0	0	1
LeftHandIndex2	0	0	0	0	0	0	1
LeftHandIndex3	0	0	0	0	0	0	1
LeftHandIndex4	0	0	0	0	0	0	1
LeftHandMiddle1	0	0	0	0	0	0	1
LeftHandMiddle2	0	0	0	0	0	0	1
LeftHandMiddle3	0	0	0	0	0	0	1
LeftHandMiddle4	0	0	0	0	0	0	1
LeftHandRing1	0	0	0	0	0	0	1
LeftHandRing2	0	0	0	0	0	0	1
LeftHandRing3	0	0	0	0	0	0	1
LeftHandRing4	0	0	0	0	0	0	1
LeftHandPinky1	0	0	0	0	0	0	1
LeftHandPinky2	0	0	0	0	0	0	1
LeftHandPinky3	0	0	0	0	0	0	1
LeftHandPinky4	0	0	0	0	0	0	1
RightShoulder	0	0	0	0	0	0	1
RightArm	0	0	0	0	0	0	1
RightForeArm	0	0	0	0	0	0	1
RightHand	0	0	0	0	0	0	1
RightHandPinky1	0	0	0	0	0	0	1
RightHandPinky2	0	0	0	0	0	0	1
RightHandPinky3	0	0	0	0	0	0	1
RightHandPinky4	0	0	0	0	0	0	1
RightHandRing1	0	0	0	0	0	0	1
RightHandRing2	0	0	0	0	0	0	1
RightHandRing3	0	0	0	0	0	0	1
RightHandRing4	0	0	0	0	0	0	1
RightHandMiddle1	0	0	0	0	0	0	1
RightHandMiddle2	0	0	0	0	0	0	1
RightHandMiddle3	0	0	0	0	0	0	1
RightHandMiddle4	0	0	0	0	0	0	1
RightHandIndex1	0	0	0	0	0	0	1
RightHandIndex2	0	0	0	0	0	0	1
RightHandIndex3	0	0	0	0	0	0	1
RightHandIndex4	0	0	0	0	0	0	1
RightHandThumb1	0	0	0	0	0	0	1
RightHandThumb2	0	0	0	0	0	0	1
RightHandThumb3	0	0	0	0	0	0	1
RightHandThumb4	0	0	0	0	0	0	1
LeftUpLeg	0	0	0	0	0	0	1
LeftLeg	0	0	0	0	0	0	1
LeftFoot	0	0	0	0	0	0	1
LeftToeBase	0	0	0	0	0	0	1
RightUpLeg	0	0	0	0	0	0	1
RightLeg	0	0	0	0	0	0	1
RightFoot	0	0	0	0	0	0	1
RightToeBase	0	0	0	0	0	0	1
[Hips]
48	-2.034041405	1033.90271	18.99173355	-3.497078896	-5.18751049	-3.144643545	1.0
49	-2.236223698	1033.889038	18.98257446	-3.511356831	-5.154520988	-3.129936457	1.0
50	-2.454321623	1033.882813	18.97792244	-3.523190498	-5.130076408	-3.117433548	1.0
51	-2.675593376	1033.87146	18.9752121	-3.528904676	-5.110399723	-3.107425451	1.0
[Spine]
48	0	101.8159943	1.315000057	3.680075169	1.814016581	2.955416441	1.0
49	0	101.8159943	1.315000057	3.696137667	1.826647758	2.962265253	1.0
50	0	101.8159943	1.315000057	3.712739944	1.837615132	2.970599413	1.0
51	0	101.8159943	1.315000057	3.728365898	1.849361181	2.980979204	1.0
[Spine1]
48	0	100.8349991	-10.00800037	1.247951746	0.4882101417	1.60789454	1.0
49	0	100.8349991	-10.00800037	1.253176451	0.4936483204	1.610337257	1.0
50	0	100.8349991	-10.00800037	1.258597136	0.4983332157	1.613078237	1.0
51	0	100.8349991	-10.00800037	1.263675094	0.5031949282	1.616354585	1.0
[Spine2]
48	0	91	-13.73399925	1.222733974	0.5110209584	1.60987103	1.0
49	0	91	-13.73399925	1.227952719	0.5164865255	1.612263441	1.0
50	0	91	-13.73399925	1.233373284	0.5211889148	1.614958882	1.0
51	0	91	-13.73399925	1.238459945	0.5260549784	1.618191957	1.0
[Neck]
48	0	166.7169952	-25.16200066	5.642651558	-0.247615099	0.3940500319	1.0
49	0	166.7169952	-25.16200066	5.647105694	-0.2539830208	0.3818061352	1.0
50	0	166.7169952	-25.16200066	5.6492033	-0.2592206001	0.3705146611	1.0
51	0	166.7169952	-25.16200066	5.647916794	-0.2620460689	0.3643701375	1.0
[Head]
48	0	96.17900085	16.84999847	-8.415777206	0.9575070739	-0.2943722606	1.0
49	0	96.17900085	16.84999847	-8.42448616	0.9210177064	-0.3042176962	1.0
50	0	96.17900085	16.84999847	-8.449462891	0.8890233636	-0.3115194142	1.0
51	0	96.17900085	16.84999847	-8.486116409	0.8736214042	-0.309869051	1.0
[LeftEye]
48	30.6760006	64.09500122	92.83599854	0	0	0	1.0
49	30.6760006	64.09500122	92.83599854	0	0	0	1.0
50	30.6760006	64.09500122	92.83599854	0	0	0	1.0
51	30.6760006	64.09500122	92.83599854	0	0	0	1.0
[RightEye]
48	-30.6760006	64.09500122	92.83499908	0	0	0	1.0
49	-30.6760006	64.09500122	92.83499908	0	0	0	1.0
50	-30.6760006	64.09500122	92.83499908	0	0	0	1.0
51	-30.6760006	64.09500122	92.83499908	0	0	0	1.0
[LeftShoulder]
48	45.70400238	109.4599991	-26.28000069	4.971040726	-16.8476696	-13.53994083	1.0
49	45.70400238	109.4599991	-26.28000069	4.977974892	-16.87382126	-13.56695652	1.0
50	45.70400238	109.4599991	-26.28000069	4.984231472	-16.8979435	-13.59106731	1.0
51	45.70400238	109.4599991	-26.28000069	4.989256859	-16.92036819	-13.609231	1.0
[LeftArm]
48	105.923996	-5.24600029	-22.32099915	19.95258141	-3.623469591	-70.89230347	1.0
49	105.923996	-5.24600029	-22.32099915	19.9664402	-3.625610352	-70.86132813	1.0
50	105.923996	-5.24600029	-22.32099915	19.98011589	-3.629018307	-70.84146881	1.0
51	105.923996	-5.24600029	-22.32099915	19.98536682	-3.640855789	-70.83965302	1.0
[LeftForeArm]
48	278.414978	-0.0009999999311	0	-4.214994988e-06	-1.441683173	-0.0002038473758	1.0
49	278.414978	-0.0009999999311	0	-1.026179461e-06	-1.439818859	-0.000200194525	1.0
50	278.414978	-0.0009999999311	0	5.605529552e-08	-1.438222885	-0.0001994616468	1.0
51	278.414978	-0.0009999999311	0	-1.284944028e-05	-1.43872118	-0.0001959049405	1.0
[LeftHand]
48	283.2879944	0	0	-32.84289169	-4.604310513	-4.129507542	1.0
49	283.2879944	0	0	-32.8551178	-4.619954109	-4.144567966	1.0
50	283.2879944	0	0	-32.86943054	-4.631992817	-4.146975517	1.0
51	283.2879944	0	0	-32.87458038	-4.633163452	-4.128724575	1.0
[LeftHandThumb1]
48	24.6609993	-15.75	26.8239994	-0.4889889657	2.201390743	4.818541527	1.0
49	24.6609993	-15.75	26.8239994	-0.4889889657	2.201390743	4.818541527	1.0
50	24.6609993	-15.75	26.8239994	-0.4889889657	2.201390743	4.818541527	1.0
51	24.6609993	-15.75	26.8239994	-0.4889889657	2.201390743	4.818541527	1.0
[LeftHandThumb2]
48	32.29800034	-18.64699936	18.64699936	19.88581276	19.96446037	23.26738167	1.0
49	32.29800034	-18.64699936	18.64699936	19.88581276	19.96446037	23.26738167	1.0
50	32.29800034	-18.64699936	18.64699936	19.88581276	19.96446037	23.26738167	1.0
51	32.29800034	-18.64699936	18.64699936	19.88581276	19.96446037	23.26738167	1.0
[LeftHandThumb3]
48	26.52600098	-15.31499958	15.31499958	-13.14535904	5.551738262	7.967928886	1.0
49	26.52600098	-15.31499958	15.31499958	-13.14535904	5.551738262	7.967928886	1.0
50	26.52600098	-15.31499958	15.31499958	-13.14535904	5.551738262	7.967928886	1.0
51	26.52600098	-15.31499958	15.31499958	-13.14535904	5.551738262	7.967928886	1.0
[LeftHandThumb4]
48	19.54599953	-11.28499985	11.28499985	0	0	0	1.0
49	19.54599953	-11.28499985	11.28499985	0	0	0	1.0
50	19.54599953	-11.28499985	11.28499985	0	0	0	1.0
51	19.54599953	-11.28499985	11.28499985	0	0	0	1.0
[LeftHandIndex1]
48	91.09299469	-5.170999527	22.60099792	0.1480516791	-0.9618676901	-7.594518185	1.0
49	91.09299469	-5.170999527	22.60099792	0.1480516791	-0.9618676901	-7.594518185	1.0
50	91.09299469	-5.170999527	22.60099792	0.1480516791	-0.9618676901	-7.594518185	1.0
51	91.09299469	-5.170999527	22.60099792	0.1480516791	-0.9618676901	-7.594518185	1.0
[LeftHandIndex2]
48	36.76399994	0	0	-0.2667043209	1.745171905	-17.37646866	1.0
49	36.76399994	0	0	-0.2667043209	1.745171905	-17.37646866	1.0
50	36.76399994	0	0	-0.2667043209	1.745171905	-17.37646866	1.0
51	36.76399994	0	0	-0.2667043209	1.745171905	-17.37646866	1.0
[LeftHandIndex3]
48	28.83100128	0	0	-0.05742863193	0.817338407	-8.038370132	1.0
49	28.83100128	0	0	-0.05742863193	0.817338407	-8.038370132	1.0
50	28.83100128	0	0	-0.05742863193	0.817338407	-8.038370132	1.0
51	28.83100128	0	0	-0.05742863193	0.817338407	-8.038370132	1.0
[LeftHandIndex4]
48	23.92700005	0	0	0	0	0	1.0
49	23.92700005	0	0	0	0	0	1.0
50	23.92700005	0	0	0	0	0	1.0
51	23.92700005	0	0	0	0	0	1.0
[LeftHandMiddle1]
48	95.33399963	0	0	-0.7942916155	2.538622379	-15.71737862	1.0
49	95.33399963	0	0	-0.7942916155	2.538622379	-15.71737862	1.0
50	95.33399963	0	0	-0.7942916155	2.538622379	-15.71737862	1.0
51	95.33399963	0	0	-0.7942916155	2.538622379	-15.71737862	1.0
[LeftHandMiddle2]
48	36.98199844	0	0	-0.267610997	1.748071074	-17.40625954	1.0
49	36.98199844	0	0	-0.267610997	1.748071074	-17.40625954	1.0
50	36.98199844	0	0	-0.267610997	1.748071074	-17.40625954	1.0
51	36.98199844	0	0	-0.267610997	1.748071074	-17.40625954	1.0
[LeftHandMiddle3]
48	29.50900078	0	0	-0.2992140949	1.84580946	-18.41413307	1.0
49	29.50900078	0	0	-0.2992140949	1.84580946	-18.41413307	1.0
50	29.50900078	0	0	-0.2992140949	1.84580946	-18.41413307	1.0
51	29.50900078	0	0	-0.2992140949	1.84580946	-18.41413307	1.0
[LeftHandMiddle4]
48	28.3390007	0	0	0	0	0	1.0
49	28.3390007	0	0	0	0	0	1.0
50	28.3390007	0	0	0	0	0	1.0
51	28.3390007	0	0	0	0	0	1.0
[LeftHandRing1]
48	91.04499817	-0.4390000105	-18.65100098	-1.184956431	3.436642885	-21.16632462	1.0
49	91.04499817	-0.4390000105	-18.65100098	-1.184956431	3.436642885	-21.16632462	1.0
50	91.04499817	-0.4390000105	-18.65100098	-1.184956431	3.436642885	-21.16632462	1.0
51	91.04499817	-0.4390000105	-18.65100098	-1.184956431	3.436642885	-21.16632462	1.0
[LeftHandRing2]
48	31.54000092	0	0	-0.3849357069	2.085560799	-20.91281319	1.0
49	31.54000092	0	0	-0.3849357069	2.085560799	-20.91281319	1.0
50	31.54000092	0	0	-0.3849357069	2.085560799	-20.91281319	1.0
51	31.54000092	0	0	-0.3849357069	2.085560799	-20.91281319	1.0
[LeftHandRing3]
48	29.37700081	0	0	-0.2818065584	1.792707562	-17.86576271	1.0
49	29.37700081	0	0	-0.2818065584	1.792707562	-17.86576271	1.0
50	29.37700081	0	0	-0.2818065584	1.792707562	-17.86576271	1.0
51	29.37700081	0	0	-0.2818065584	1.792707562	-17.86576271	1.0
[LeftHandRing4]
48	26.47500038	0	0	0	0	0	1.0
49	26.47500038	0	0	0	0	0	1.0
50	26.47500038	0	0	0	0	0	1.0
51	26.47500038	0	0	0	0	0	1.0
[LeftHandPinky1]
48	80.77799988	-4.887000084	-38.06099701	-1.708467126	5.355370045	-27.1653862	1.0
49	80.77799988	-4.887000084	-38.06099701	-1.708467126	5.355370045	-27.1653862	1.0
50	80.77799988	-4.887000084	-38.06099701	-1.708467126	5.355370045	-27.1653862	1.0
51	80.77799988	-4.887000084	-38.06099701	-1.708467126	5.355370045	-27.1653862	1.0
[LeftHandPinky2]
48	36	0	0	-0.2676221728	1.748113751	-17.40663528	1.0
49	36	0	0	-0.2676221728	1.748113751	-17.40663528	1.0
50	36	0	0	-0.2676221728	1.748113751	-17.40663528	1.0
51	36	0	0	-0.2676221728	1.748113751	-17.40663528	1.0
[LeftHandPinky3]
48	21.14200211	0	0	-0.2408525199	1.660349369	-16.50663185	1.0
49	21.14200211	0	0	-0.2408525199	1.660349369	-16.50663185	1.0
50	21.14200211	0	0	-0.2408525199	1.660349369	-16.50663185	1.0
51	21.14200211	0	0	-0.2408525199	1.660349369	-16.50663185	1.0
[LeftHandPinky4]
48	19.75699997	0	0	0	0	0	1.0
49	19.75699997	0	0	0	0	0	1.0
50	19.75699997	0	0	0	0	0	1.0
51	19.75699997	0	0	0	0	0	1.0
[RightShoulder]
48	-45.70000076	109.4620056	-26.28000069	5.308633804	14.99380589	16.0076561	1.0
49	-45.70000076	109.4620056	-26.28000069	5.318375111	15.05445385	16.03137016	1.0
50	-45.70000076	109.4620056	-26.28000069	5.32618475	15.10851669	16.04729462	1.0
51	-45.70000076	109.4620056	-26.28000069	5.331444263	15.14718437	16.05673599	1.0
[RightArm]
48	-105.9280014	-5.248000145	-22.32099915	30.15305901	1.832046032	62.39261627	1.0
49	-105.9280014	-5.248000145	-22.32099915	30.19230652	1.835199594	62.36577606	1.0
50	-105.9280014	-5.248000145	-22.32099915	30.23131752	1.840264082	62.33875656	1.0
51	-105.9280014	-5.248000145	-22.32099915	30.26979637	1.843819499	62.30646515	1.0
[RightForeArm]
48	-278.414978	0	0	1.647498948e-06	6.688597202	-1.423308504e-06	1.0
49	-278.414978	0	0	2.791425686e-06	6.67625618	-1.209244147e-05	1.0
50	-278.414978	0	0	-1.182347205e-06	6.671255589	-3.486419928e-06	1.0
51	-278.414978	0	0	5.032549311e-08	6.674771309	2.707626845e-05	1.0
[RightHand]
48	-283.2879944	0	0.0009999999311	-20.49047852	1.668190241	6.144327164	1.0
49	-283.2879944	0	0.0009999999311	-20.47039223	1.651593208	6.139851093	1.0
50	-283.2879944	0	0.0009999999311	-20.45609474	1.641318083	6.141854763	1.0
51	-283.2879944	0	0.0009999999311	-20.45573425	1.640854359	6.149218559	1.0
[RightHandPinky1]
48	-80.76699829	-4.885000229	-38.06000137	-1.507175922	-4.696118355	26.50587463	1.0
49	-80.76699829	-4.885000229	-38.06000137	-1.507175922	-4.696118355	26.50587463	1.0
50	-80.76699829	-4.885000229	-38.06000137	-1.507175922	-4.696118355	26.50587463	1.0
51	-80.76699829	-4.885000229	-38.06000137	-1.507175922	-4.696118355	26.50587463	1.0
[RightHandPinky2]
48	-36	0	0.0009999999311	-0.2127676606	-1.388874292	17.43785858	1.0
49	-36	0	0.0009999999311	-0.2127676606	-1.388874292	17.43785858	1.0
50	-36	0	0.0009999999311	-0.2127676606	-1.388874292	17.43785858	1.0
51	-36	0	0.0009999999311	-0.2127676606	-1.388874292	17.43785858	1.0
[RightHandPinky3]
48	-21.14200211	0	0	-0.1919144988	-1.32059598	16.53641129	1.0
49	-21.14200211	0	0	-0.1919144988	-1.32059598	16.53641129	1.0
50	-21.14200211	0	0	-0.1919144988	-1.32059598	16.53641129	1.0
51	-21.14200211	0	0	-0.1919144988	-1.32059598	16.53641129	1.0
[RightHandPinky4]
48	-19.75699997	0	0	0	0	0	1.0
49	-19.75699997	0	0	0	0	0	1.0
50	-19.75699997	0	0	0	0	0	1.0
51	-19.75699997	0	0	0	0	0	1.0
[RightHandRing1]
48	-91.03599548	-0.4390000105	-18.65100098	-1.045235753	-2.883111477	20.47788429	1.0
49	-91.03599548	-0.4390000105	-18.65100098	-1.045235753	-2.883111477	20.47788429	1.0
50	-91.03599548	-0.4390000105	-18.65100098	-1.045235753	-2.883111477	20.47788429	1.0
51	-91.03599548	-0.4390000105	-18.65100098	-1.045235753	-2.883111477	20.47788429	1.0
[RightHandRing2]
48	-31.54000092	0	0	-0.3066971898	-1.658752441	20.94926834	1.0
49	-31.54000092	0	0	-0.3066971898	-1.658752441	20.94926834	1.0
50	-31.54000092	0	0	-0.3066971898	-1.658752441	20.94926834	1.0
51	-31.54000092	0	0	-0.3066971898	-1.658752441	20.94926834	1.0
[RightHandRing3]
48	-29.37700081	0	0	-0.2245407403	-1.425854325	17.89771652	1.0
49	-29.37700081	0	0	-0.2245407403	-1.425854325	17.89771652	1.0
50	-29.37700081	0	0	-0.2245407403	-1.425854325	17.89771652	1.0
51	-29.37700081	0	0	-0.2245407403	-1.425854325	17.89771652	1.0
[RightHandRing4]
48	-26.47500038	0	0	0	0	0	1.0
49	-26.47500038	0	0	0	0	0	1.0
50	-26.47500038	0	0	0	0	0	1.0
51	-26.47500038	0	0	0	0	0	1.0
[RightHandMiddle1]
48	-95.32500458	0	0	-0.7017197609	-2.087752104	15.0152874	1.0
49	-95.32500458	0	0	-0.7017197609	-2.087752104	15.0152874	1.0
50	-95.32500458	0	0	-0.7017197609	-2.087752104	15.0152874	1.0
51	-95.32500458	0	0	-0.7017197609	-2.087752104	15.0152874	1.0
[RightHandMiddle2]
48	-36.98199844	0	0	-0.213228479	-1.390354872	17.43750381	1.0
49	-36.98199844	0	0	-0.213228479	-1.390354872	17.43750381	1.0
50	-36.98199844	0	0	-0.213228479	-1.390354872	17.43750381	1.0
51	-36.98199844	0	0	-0.213228479	-1.390354872	17.43750381	1.0
[RightHandMiddle3]
48	-29.50900078	0	0	-0.2384106964	-1.470119596	18.44692802	1.0
49	-29.50900078	0	0	-0.2384106964	-1.470119596	18.44692802	1.0
50	-29.50900078	0	0	-0.2384106964	-1.470119596	18.44692802	1.0
51	-29.50900078	0	0	-0.2384106964	-1.470119596	18.44692802	1.0
[RightHandMiddle4]
48	-28.3390007	0	0.0009999999311	0	0	0	1.0
49	-28.3390007	0	0.0009999999311	0	0	0	1.0
50	-28.3390007	0	0.0009999999311	0	0	0	1.0
51	-28.3390007	0	0.0009999999311	0	0	0	1.0
[RightHandIndex1]
48	-91.08300018	-5.167999744	22.60099792	0.1884763837	1.25192976	6.825599194	1.0
49	-91.08300018	-5.167999744	22.60099792	0.1884763837	1.25192976	6.825599194	1.0
50	-91.08300018	-5.167999744	22.60099792	0.1884763837	1.25192976	6.825599194	1.0
51	-91.08300018	-5.167999744	22.60099792	0.1884763837	1.25192976	6.825599194	1.0
[RightHandIndex2]
48	-36.76399994	0	0	-0.2125098109	-1.388050556	17.40767097	1.0
49	-36.76399994	0	0	-0.2125098109	-1.388050556	17.40767097	1.0
50	-36.76399994	0	0	-0.2125098109	-1.388050556	17.40767097	1.0
51	-36.76399994	0	0	-0.2125098109	-1.388050556	17.40767097	1.0
[RightHandIndex3]
48	-28.83100128	0	0	-0.04576345533	-0.650116384	8.053516388	1.0
49	-28.83100128	0	0	-0.04576345533	-0.650116384	8.053516388	1.0
50	-28.83100128	0	0	-0.04576345533	-0.650116384	8.053516388	1.0
51	-28.83100128	0	0	-0.04576345533	-0.650116384	8.053516388	1.0
[RightHandIndex4]
48	-23.92700005	0	0	0	0	0	1.0
49	-23.92700005	0	0	0	0	0	1.0
50	-23.92700005	0	0	0	0	0	1.0
51	-23.92700005	0	0	0	0	0	1.0
[RightHandThumb1]
48	-24.64799881	-15.72700024	26.82600021	-1.658462524	-0.2891407609	-4.221328735	1.0
49	-24.64799881	-15.72700024	26.82600021	-1.658462524	-0.2891407609	-4.221328735	1.0
50	-24.64799881	-15.72700024	26.82600021	-1.658462524	-0.2891407609	-4.221328735	1.0
51	-24.64799881	-15.72700024	26.82600021	-1.658462524	-0.2891407609	-4.221328735	1.0
[RightHandThumb2]
48	-32.29800034	-18.64699936	18.64699936	22.25259209	-23.88967514	-24.282444	1.0
49	-32.29800034	-18.64699936	18.64699936	22.25259209	-23.88967514	-24.282444	1.0
50	-32.29800034	-18.64699936	18.64699936	22.25259209	-23.88967514	-24.282444	1.0
51	-32.29800034	-18.64699936	18.64699936	22.25259209	-23.88967514	-24.282444	1.0
[RightHandThumb3]
48	-26.52600098	-15.31399918	15.31399918	-14.47830296	-6.743862152	-11.36570263	1.0
49	-26.52600098	-15.31399918	15.31399918	-14.47830296	-6.743862152	-11.36570263	1.0
50	-26.52600098	-15.31399918	15.31399918	-14.47830296	-6.743862152	-11.36570263	1.0
51	-26.52600098	-15.31399918	15.31399918	-14.47830296	-6.743862152	-11.36570263	1.0
[RightHandThumb4]
48	-19.54599953	-11.28499985	11.28499985	0	0	0	1.0
49	-19.54599953	-11.28499985	11.28499985	0	0	0	1.0
50	-19.54599953	-11.28499985	11.28499985	0	0	0	1.0
51	-19.54599953	-11.28499985	11.28499985	0	0	0	1.0
[LeftUpLeg]
48	82.07800293	-67.51699829	-15.99599934	-7.935427666	16.36907387	7.698914051	1.0
49	82.07800293	-67.51699829	-15.99599934	-7.92120266	16.36635208	7.693043232	1.0
50	82.07800293	-67.51699829	-15.99599934	-7.904615402	16.37232018	7.692088127	1.0
51	82.07800293	-67.51699829	-15.99599934	-7.893769264	16.38170433	7.69286108	1.0
[LeftLeg]
48	0	-443.7049866	2.845999956	12.09337139	0.7099727988	4.413628101	1.0
49	0	-443.7049866	2.845999956	12.07390022	0.6804462671	4.41023016	1.0
50	0	-443.7049866	2.845999956	12.05042362	0.6545187831	4.404116154	1.0
51	0	-443.7049866	2.845999956	12.02832699	0.6340197325	4.399082184	1.0
[LeftFoot]
48	0	-444.2789917	-29.8219986	1.146520853	0.6791487336	-7.222718239	1.0
49	0	-444.2789917	-29.8219986	1.166924715	0.6795856953	-7.224034786	1.0
50	0	-444.2789917	-29.8219986	1.187613249	0.6795722842	-7.22062254	1.0
51	0	-444.2789917	-29.8219986	1.205279231	0.6798502803	-7.219877243	1.0
[LeftToeBase]
48	0	-87.28699493	107.1060028	-4.945873737	3.632351309e-06	8.613027944e-07	1.0
49	0	-87.28699493	107.1060028	-4.954333305	5.047198556e-06	8.221352488e-08	1.0
50	0	-87.28699493	107.1060028	-4.958897114	2.972414677e-06	8.546069807e-08	1.0
51	0	-87.28699493	107.1060028	-4.952895164	-6.63058745e-06	-3.144633069e-07	1.0
[RightUpLeg]
48	-82.07800293	-67.51699829	-15.99599934	0.2400149256	-10.50289631	3.307068825	1.0
49	-82.07800293	-67.51699829	-15.99599934	0.2359967679	-10.51133633	3.30263257	1.0
50	-82.07800293	-67.51699829	-15.99599934	0.235868901	-10.5216856	3.299519539	1.0
51	-82.07800293	-67.51699829	-15.99599934	0.2286582887	-10.52742958	3.30115509	1.0
[RightLeg]
48	0	-443.7049866	2.861999989	8.325155258	-9.217683792	-4.676650524	1.0
49	0	-443.7049866	2.861999989	8.366496086	-9.215080261	-4.6845541	1.0
50	0	-443.7049866	2.861999989	8.39570713	-9.213524818	-4.687094212	1.0
51	0	-443.7049866	2.861999989	8.425089836	-9.212148666	-4.688864231	1.0
[RightFoot]
48	0	-444.2770081	-29.83799934	-4.304067135	-1.487227201	3.33466053	1.0
49	0	-444.2770081	-29.83799934	-4.333428383	-1.504539132	3.330395937	1.0
50	0	-444.2770081	-29.83799934	-4.356765747	-1.511659026	3.321733475	1.0
51	0	-444.2770081	-29.83799934	-4.37939024	-1.528577924	3.311903238	1.0
[RightToeBase]
48	0	-87.28699493	107.1060028	-7.249993324	-3.524552312e-06	-1.627448569e-06	1.0
49	0	-87.28699493	107.1060028	-7.260859013	3.546886319e-06	-2.939460046e-06	1.0
50	0	-87.28699493	107.1060028	-7.26792717	1.334825174e-05	-2.059727194e-06	1.0
51	0	-87.28699493	107.1060028	-7.265274048	-4.577425443e-06	5.157285727e-07	1.0
[EndOfFile]
